<?xml version="1.0" standalone="no"?>
<!DOCTYPE svg PUBLIC "-//W3C//DTD SVG 20010904//EN"
 "http://www.w3.org/TR/2001/REC-SVG-20010904/DTD/svg10.dtd">
<svg version="1.0" xmlns="http://www.w3.org/2000/svg"
 width="348.000000pt" height="348.000000pt" viewBox="0 0 348.000000 348.000000"
 preserveAspectRatio="xMidYMid meet">
<metadata>
Created by potrace 1.14, written by Peter Selinger 2001-2017
</metadata>
<g transform="translate(0.000000,348.000000) scale(0.100000,-0.100000)"
fill="#000000" stroke="none">
<path d="M1276 3453 c-4 -16 -9 -103 -12 -194 -6 -149 -4 -168 11 -180 9 -8
28 -24 41 -36 14 -13 29 -23 35 -23 6 0 27 -13 47 -29 72 -57 242 -126 345
-138 26 -3 50 -10 53 -14 3 -5 21 -9 41 -9 l35 0 -31 -35 c-30 -34 -40 -65
-22 -65 4 0 20 19 35 43 l27 42 102 -3 c106 -4 309 15 461 43 91 17 288 85
341 118 17 10 54 34 84 53 71 43 132 102 172 164 l32 49 178 -181 c98 -99 176
-184 174 -189 -3 -4 -10 -54 -15 -111 -24 -254 -21 -306 21 -471 47 -182 48
-177 49 258 0 376 -1 398 -17 375 -9 -14 -17 -26 -19 -28 -4 -6 -354 350 -354
360 0 5 14 30 31 55 77 111 218 97 302 -30 19 -29 39 -65 45 -82 8 -24 11 3
11 128 l1 157 -1099 0 -1099 0 -6 -27z"/>
<path d="M1340 2951 c0 -17 5 -33 11 -37 8 -4 9 1 5 17 -7 24 -7 24 9 4 9 -11
19 -31 22 -45 4 -14 18 -36 32 -50 58 -56 207 -224 219 -246 7 -14 10 -29 7
-35 -4 -5 -1 -16 5 -24 10 -12 9 -15 -4 -15 -10 0 -16 -9 -16 -24 0 -14 -4
-28 -10 -31 -5 -3 -13 -20 -18 -36 -7 -29 -10 -23 -42 70 -18 56 -37 101 -42
101 -10 0 -10 -14 1 -42 5 -13 21 -63 36 -113 61 -201 192 -579 250 -720 52
-125 65 -149 81 -147 10 2 32 6 48 9 33 7 46 -8 46 -54 0 -21 -8 -41 -21 -54
-22 -22 -22 -22 -4 -78 10 -31 20 -61 22 -67 8 -22 -50 -31 -146 -23 -52 5
-98 6 -101 4 -9 -6 13 -93 34 -133 18 -36 70 -81 108 -94 33 -12 34 -17 7
-103 -61 -198 -266 -360 -505 -399 l-41 -7 -36 75 c-39 82 -84 153 -121 189
-96 93 -154 133 -256 174 -108 44 -194 57 -314 49 -130 -9 -144 -11 -153 -20
-8 -8 33 -5 175 10 97 11 298 -44 390 -106 73 -49 151 -114 152 -127 0 -6 3
-13 8 -15 16 -7 61 -77 106 -164 l47 -92 62 14 c34 8 72 19 85 24 18 8 24 6
28 -8 3 -9 11 -30 18 -47 8 -16 28 -64 46 -105 52 -123 72 -160 87 -160 7 0
13 -4 13 -8 0 -4 56 -65 124 -135 l125 -127 780 0 781 0 0 760 c0 779 0 784
-36 751 -27 -25 -123 -44 -214 -43 -151 2 -235 19 -317 64 -40 22 -75 43 -78
48 -2 4 3 29 12 55 26 76 4 217 -40 254 -12 9 -17 3 -32 -41 -19 -60 -61 -137
-83 -155 -22 -18 -44 -16 -72 7 -14 10 -52 39 -84 63 l-59 44 -56 -12 c-31 -7
-86 -16 -123 -20 -65 -6 -67 -6 -72 17 -2 13 -11 61 -21 108 -9 47 -18 92 -19
100 -12 95 -115 240 -273 384 -59 55 -148 135 -197 180 -116 105 -296 294
-296 310 0 7 -70 106 -76 106 -2 0 -4 -13 -4 -29z"/>
<path d="M1160 2771 c0 -5 4 -11 10 -13 15 -5 70 -173 72 -224 2 -25 8 -44 15
-44 19 0 122 100 148 144 24 42 52 133 42 142 -2 3 -12 -15 -20 -39 -22 -65
-139 -229 -153 -215 -2 3 -13 40 -25 84 -27 102 -58 174 -75 174 -8 0 -14 -4
-14 -9z"/>
<path d="M2238 2714 c-6 -25 -13 -33 -40 -38 -18 -3 -47 -21 -65 -38 -33 -32
-41 -60 -23 -88 7 -12 10 -11 15 5 22 67 51 85 134 85 45 0 69 -9 124 -44 35
-24 34 -15 -4 28 -26 30 -29 38 -19 56 6 12 10 29 7 38 -2 12 -9 7 -21 -19
-18 -36 -19 -36 -57 -27 -33 9 -38 14 -41 42 l-3 31 -7 -31z"/>
<path d="M1144 2704 c-54 -165 -133 -274 -250 -342 l-51 -30 -37 73 c-33 67
-83 131 -93 121 -2 -2 1 -51 8 -108 15 -128 7 -276 -22 -388 -30 -122 -126
-306 -208 -399 -12 -13 -21 -27 -21 -31 0 -12 -205 -220 -217 -220 -6 0 -14 8
-18 18 -3 9 -12 25 -19 35 -13 17 -17 16 -65 -13 -29 -16 -54 -30 -57 -30 -3
0 -68 -39 -93 -57 -2 -2 -2 -6 2 -9 3 -3 27 8 52 25 64 43 143 82 148 73 2 -4
7 -20 11 -36 4 -16 16 -41 27 -54 10 -14 19 -31 19 -38 0 -13 104 -219 122
-242 12 -14 12 -14 -17 -31 -18 -11 -17 -12 10 -6 37 8 40 11 27 27 -19 25
-49 84 -95 190 -49 111 -54 128 -37 128 21 0 193 187 236 257 12 18 30 44 41
56 37 41 120 191 141 257 44 138 54 202 56 350 0 80 -2 157 -7 173 -9 33 4 36
19 4 6 -12 25 -50 44 -85 30 -58 35 -63 59 -57 39 10 91 36 91 46 0 5 5 9 11
9 14 0 113 105 131 139 7 14 16 28 20 31 10 8 51 171 44 177 -3 3 -8 -3 -12
-13z"/>
<path d="M1470 2715 c0 -18 33 -95 40 -95 9 0 -17 81 -31 95 -5 5 -9 5 -9 0z"/>
<path d="M2175 2498 c-11 -35 4 -66 55 -118 89 -90 151 -120 180 -85 34 41
-40 158 -125 196 -46 21 -104 25 -110 7z"/>
<path d="M1418 2240 c2 -16 8 -30 13 -30 10 0 11 7 3 38 -9 33 -21 27 -16 -8z"/>
<path d="M1365 2238 c5 -18 4 -20 -4 -8 -8 12 -15 10 -39 -13 -44 -42 -85
-123 -80 -158 3 -16 1 -29 -4 -29 -4 0 -8 -12 -8 -27 0 -24 6 -19 39 37 22 36
60 84 85 107 50 45 51 49 36 87 -12 32 -34 35 -25 4z"/>
<path d="M1378 1968 c-50 -38 -54 -197 -8 -287 28 -56 36 -47 10 12 -26 59
-29 151 -6 194 24 48 60 69 92 54 23 -10 24 -13 10 -27 -18 -18 -22 -94 -5
-94 6 0 9 -9 6 -20 -3 -11 -1 -20 4 -20 5 0 9 -6 9 -13 0 -49 69 -113 103 -95
17 9 19 17 14 60 -6 47 -43 142 -66 170 -54 63 -64 71 -104 75 -26 3 -49 -1
-59 -9z"/>
<path d="M1890 1474 c0 -14 3 -14 15 -4 8 7 15 14 15 16 0 2 -7 4 -15 4 -8 0
-15 -7 -15 -16z"/>
<path d="M191 925 c-24 -19 -40 -35 -35 -35 9 1 93 70 84 70 -3 0 -25 -16 -49
-35z"/>
<path d="M104 848 l-19 -23 23 19 c12 11 22 21 22 23 0 8 -8 2 -26 -19z"/>
<path d="M36 772 c-20 -27 -36 -58 -36 -68 0 -12 10 -2 26 26 14 25 33 53 41
63 9 9 14 20 11 23 -3 3 -22 -17 -42 -44z"/>
<path d="M561 539 c-13 -5 -22 -11 -20 -13 7 -7 59 6 59 15 0 11 -8 11 -39 -2z"/>
<path d="M704 525 c11 -8 25 -15 30 -15 6 0 2 7 -8 15 -11 8 -25 15 -30 15 -6
0 -2 -7 8 -15z"/>
<path d="M1341 514 c0 -11 3 -14 6 -6 3 7 2 16 -1 19 -3 4 -6 -2 -5 -13z"/>
<path d="M479 493 c-29 -18 -51 -69 -51 -119 0 -42 43 -109 75 -118 37 -10 74
-7 86 8 9 11 5 12 -28 3 -48 -13 -85 7 -107 58 -22 55 -17 88 21 139 20 25 35
46 33 46 -2 0 -15 -8 -29 -17z"/>
<path d="M1351 480 c0 -8 4 -24 9 -35 5 -13 9 -14 9 -5 0 8 -4 24 -9 35 -5 13
-9 14 -9 5z"/>
<path d="M1385 441 c7 -12 97 -62 102 -57 4 4 -90 66 -101 66 -4 0 -5 -4 -1
-9z"/>
<path d="M1377 320 c2 -52 1 -113 -4 -134 l-9 -40 -114 3 c-63 1 -112 0 -109
-3 3 -3 60 -8 126 -10 l120 -5 -5 25 c-7 40 13 27 38 -23 13 -26 25 -42 27
-36 2 6 -10 36 -26 65 -27 48 -31 65 -32 134 0 43 -4 88 -9 99 -4 11 -6 -21
-3 -75z"/>
<path d="M843 303 c1 -23 6 -38 10 -34 5 5 4 24 -2 42 l-10 34 2 -42z"/>
<path d="M1 200 c0 -33 16 -66 59 -122 33 -44 86 -85 96 -75 3 2 -18 24 -45
48 -33 29 -60 66 -80 109 -22 46 -30 58 -30 40z"/>
<path d="M800 109 c0 -5 5 -7 10 -4 6 3 10 8 10 11 0 2 -4 4 -10 4 -5 0 -10
-5 -10 -11z"/>
<path d="M1120 96 c-5 -15 -10 -34 -10 -42 0 -9 -5 -24 -10 -35 -7 -13 -7 -19
-1 -19 10 0 16 17 25 61 2 8 6 22 11 32 4 10 5 21 2 24 -4 3 -11 -6 -17 -21z"/>
<path d="M1160 82 c18 -12 121 -34 127 -28 6 5 -54 23 -108 32 -23 4 -29 2
-19 -4z"/>
<path d="M741 34 c-19 -19 -29 -34 -24 -34 5 0 24 16 42 35 41 45 27 45 -18
-1z"/>
<path d="M1168 3 c7 -3 16 -2 19 1 4 3 -2 6 -13 5 -11 0 -14 -3 -6 -6z"/>
</g>
</svg>
